<?xml version="1.0" encoding="UTF-8"?>
<svg version="1.2" baseProfile="tiny-ps" id="a" xmlns="http://www.w3.org/2000/svg" viewBox="0 0 180 180">
<title>BIMI Logo</title>
<path d="M1.22,1.2v177.6h177.6V1.2H1.22Z" style="fill:#fff; stroke-width:0px;"/><path d="M1.22,178.8V1.2h177.6v177.6s-177.6,0-177.6,0h0ZM163.39,92.06c1.55-4.61,3.32-11.5,3.61-17.03.22-4.17-.34-10.02-4.28-14.17-3.14-3.32-7.94-4.99-14.26-4.99-7.99,0-14.43,2.82-19.14,8.4l-1.24,1.47-.83-1.73c-.67-1.41-1.16-1.99-1.89-2.82-3.22-3.64-8.62-5.49-16.04-5.49-6.8,0-12.95,2.04-17.31,5.74l-1.1.94-.76-1.24c-2.06-3.35-7.19-5.51-13.07-5.51-8.46,0-16.99,1.15-22.14,9.45l-2.13,3.42-.17-4.03c-.13-3.12-.42-4.42-1.87-5.95-1.6-1.69-4.28-2.52-8.21-2.51-5.77,0-10.1,2.51-13.26,7.69-4.85,7.75-16.58,33.25-16.32,45.37.17,7.86,5.42,12.68,14.04,12.88,7.11.17,12.76-1.65,16.35-5.27l.92-.93.88.95c3.23,3.5,8.13,5.43,13.81,5.43,7.23,0,13.42-2.25,16.97-6.17l.97-1.07.91,1.12c3.33,4.09,8.47,6.23,14.86,6.2,8.34-.04,16.14-3.87,21.38-10.51l1.37-1.74.77,2.08c3.23,8.78,11.98,10.09,16.92,10.1,16.76,0,24.01-11.5,30.25-30.06h0Z" style="fill:#ffed00; fill-rule:evenodd; stroke-width:0px;"/><path d="M1.22,178.8V1.2h177.6v177.6s-177.6,0-177.6,0h0ZM164.51,105.06c2.32-4.78,6.69-16.76,7.49-23.22v-.07c.99-7.89,1.92-15.36-3.4-22.78-3.79-5.27-10.24-8.81-20.05-8.81-7.42,0-14.04,2.01-19.34,6.42-4.54-4.49-11.04-6.53-19.8-6.53-6.85,0-12.6,1.57-17.61,4.57-3.64-2.89-7.9-4.69-14.7-4.69-6.16,0-14.82.32-21.35,5.86-1.51-3.08-4.58-5.5-13.04-5.5-7.8,0-14.16,3.69-18.33,10.53-5.57,8.9-17.39,34.58-17.09,48.61.22,10.56,8.15,17.84,19.62,18.11,6.9.16,12.77-1.32,17.25-4.29,4.05,2.92,9.23,4.5,14.98,4.5,6.89,0,13.1-1.81,17.7-5.05,4.17,3.31,9.65,5.1,15.84,5.1,8.04,0,15.5-2.77,21.53-8.05,4.11,5.25,11.16,7.97,19.72,7.97,16.02,0,24.35-9.85,30.57-22.68Z" style="fill:#e3000b; fill-rule:evenodd; stroke-width:0px;"/><path d="M0,180V0h180v180s-180,0-180,0ZM177.52,177.52V2.48S2.48,2.48,2.48,2.48v175.04h175.04Z" style="fill:#000; fill-rule:evenodd; stroke-width:0px;"/><path d="M167.62,54.3c0-2.38,1.92-4.31,4.3-4.31,0,0,0,0,.01,0,2.38,0,4.31,1.92,4.32,4.3h0c0,2.39-1.92,4.32-4.3,4.33,0,0-.01,0-.02,0-2.38,0-4.31-1.92-4.31-4.29,0,0,0-.01,0-.02ZM171.93,50.84c1.92,0,3.48,1.54,3.47,3.46,0,1.92-1.56,3.47-3.47,3.47-1.91,0-3.46-1.55-3.45-3.46,0,0,0,0,0,0,0-1.9,1.53-3.45,3.43-3.46,0,0,.01,0,.02,0ZM173.61,55.65l.51.9h-1.12s-.36-.72-.36-.72c-.16-.32-.36-.61-.61-.87-.18-.18-.34-.23-.73-.23h-.16s0,1.83,0,1.83h-.92v-4.47h2.23c.96,0,1.41.53,1.41,1.24,0,.67-.45,1.16-1.21,1.25v.03c.38.13.51.26.96,1.04h0ZM171.14,52.79v1.23h.93c.62,0,.83-.3.82-.62,0-.39-.31-.61-.92-.61h-.83ZM128.37,63.45c4.35-5.15,10.78-8.84,20.09-8.84,16.1,0,20.32,10.53,19.79,20.48-.31,5.98-2.23,13.1-3.67,17.36-6.37,18.93-14.02,30.9-31.43,30.9-7.94,0-15.22-3.1-18.08-10.91-5.23,6.62-13.23,10.94-22.35,10.99-6.97.03-12.39-2.43-15.83-6.66-4.09,4.51-11.01,6.58-17.89,6.58-6.18,0-11.34-2.16-14.73-5.83-3.77,3.81-9.7,5.83-17.26,5.65-9.67-.23-15.08-6.04-15.26-14.1-.27-12.47,11.61-38.23,16.51-46.04,3.38-5.55,8.08-8.27,14.31-8.27,3.42,0,6.94.6,9.11,2.9,1.79,1.89,2.07,3.57,2.21,6.75,5.48-8.83,14.72-10.03,23.19-10.03,6.48,0,11.87,2.43,14.12,6.1,4.35-3.69,10.6-6.04,18.11-6.04,7.68,0,13.41,1.88,16.97,5.91.79.88,1.35,1.56,2.08,3.1h0ZM43.59,106.92c.29-3.02-1.97-6.27-10.99-4.71.9-2,2.23-4.75,3.74-7.87h0c4.84-10,11.53-23.81,11.66-29.22.07-2.67-1.01-4.89-5.33-4.89-4.57,0-7.43,1.91-9.78,5.76-5.09,8.12-15.89,32.63-15.67,43.23.13,6.06,4.82,8.45,10.04,8.57,7.19.17,15.47-1.85,16.32-10.87h0ZM61.94,93.89c-.6,1.61-1.73,4.99-2.64,8.57,2.96-.74,5.17-1.25,8.97-1.16,4.33.11,7.1,1.9,7.1,5.48,0,8.67-9.59,11.22-16.24,11.22-7.31,0-13.72-4.15-13.72-12.14,0-9.37,5.08-23.57,9.84-33.02,5.85-11.62,11.83-13.16,22.12-13.16,4.53,0,9.74,1.93,9.74,6.2,0,5.92-5.01,8.18-9.98,8.47-2.13.12-5.39.24-7.35.1,0,0-1.66,2.53-3.42,7.01,9.21-1.3,13.12.79,11.56,6.12-2.1,7.2-8.34,7.67-15.98,6.31h0ZM101.9,74.77c1.21-1.7,2.84-3.28,5.33-3.28,3.06,0,2.76,1.62,2.03,3.68-2.06,5.88,4.16,6.03,5.68,5.92,5.43-.42,8.42-3.93,9.15-9.9,1.01-8.13-5.85-11.26-14.53-11.26-14.48,0-20.16,8.86-25.59,21.52-2.55,5.95-5.75,16.11-5.75,22.58,0,9.09,5.53,14.02,14.44,14.02,13.02,0,22.22-10.38,24.84-23.31.81-3.98,1.81-11.45-8.3-11.03-5.13.21-8.23,1.34-9.86,6.59-1.68,5.4,4.41,5.55,4.41,5.55-1.23,5.58-4.82,8.97-8.01,8.97-2,0-3.81-.87-3.2-5.09.9-6.18,6.69-21.2,9.35-24.95h0ZM161.92,82.18c-1.54,7.62-4.98,16.64-8.71,23.36-6.1,10.96-13.5,12.5-19.97,12.42-6.46-.08-13.75-2.46-13.81-12.44-.04-7.16,3.05-17.27,5.67-23.89,4.57-12.01,9.24-21.81,24.01-21.63,17.22.2,14.15,15.52,12.81,22.18h0ZM140.32,101.72c2.39-4.06,9.13-22.45,9.32-27.05.05-1.34-.17-2.9-2.33-2.93-1.48-.02-2.77.27-3.93,2.06-2.6,3.38-10.22,24.18-10.09,28.33.05,1.49.88,2.79,2.71,2.79,2.11,0,3.28-1.45,4.32-3.21h0Z" style="fill:#000; fill-rule:evenodd; stroke-width:0px;"/></svg>