<?xml version="1.0" encoding="utf-8"?>
<!-- Generator: Adobe Illustrator 28.3.0, SVG Export Plug-In . SVG Version: 6.00 Build 0)  -->
<svg version="1.2" baseProfile="tiny-ps" id="a" xmlns="http://www.w3.org/2000/svg" xmlns:xlink="http://www.w3.org/1999/xlink"
	 viewBox="0 0 180 180" overflow="visible" xml:space="preserve">
<title>BIMI LOGO</title>
<path fill="#FFFFFF" d="M1.2,1.2v177.6h177.6V1.2H1.2z"/>
<path fill-rule="evenodd" fill="#FFED00" d="M1.2,178.8V1.2h177.6v177.6H1.2C1.2,178.8,1.2,178.8,1.2,178.8z M163.4,92.1
	c1.6-4.6,3.3-11.5,3.6-17c0.2-4.2-0.3-10-4.3-14.2c-3.1-3.3-7.9-5-14.3-5c-8,0-14.4,2.8-19.1,8.4l-1.2,1.5l-0.8-1.7
	c-0.7-1.4-1.2-2-1.9-2.8c-3.2-3.6-8.6-5.5-16-5.5c-6.8,0-12.9,2-17.3,5.7l-1.1,0.9l-0.8-1.2c-2.1-3.3-7.2-5.5-13.1-5.5
	c-8.5,0-17,1.2-22.1,9.4l-2.1,3.4l-0.2-4c-0.1-3.1-0.4-4.4-1.9-6c-1.6-1.7-4.3-2.5-8.2-2.5c-5.8,0-10.1,2.5-13.3,7.7
	c-4.9,7.8-16.6,33.3-16.3,45.4c0.2,7.9,5.4,12.7,14,12.9c7.1,0.2,12.8-1.7,16.3-5.3l0.9-0.9l0.9,0.9c3.2,3.5,8.1,5.4,13.8,5.4
	c7.2,0,13.4-2.2,17-6.2l1-1.1l0.9,1.1c3.3,4.1,8.5,6.2,14.9,6.2c8.3,0,16.1-3.9,21.4-10.5l1.4-1.7l0.8,2.1
	c3.2,8.8,12,10.1,16.9,10.1C149.9,122.1,157.1,110.6,163.4,92.1L163.4,92.1L163.4,92.1z"/>
<path fill-rule="evenodd" fill="#E3000B" d="M1.2,178.8V1.2h177.6v177.6H1.2C1.2,178.8,1.2,178.8,1.2,178.8z M164.5,105.1
	c2.3-4.8,6.7-16.8,7.5-23.2v-0.1c1-7.9,1.9-15.4-3.4-22.8c-3.8-5.3-10.2-8.8-20.1-8.8c-7.4,0-14,2-19.3,6.4
	c-4.5-4.5-11-6.5-19.8-6.5c-6.8,0-12.6,1.6-17.6,4.6c-3.6-2.9-7.9-4.7-14.7-4.7c-6.2,0-14.8,0.3-21.3,5.9c-1.5-3.1-4.6-5.5-13-5.5
	c-7.8,0-14.2,3.7-18.3,10.5C18.8,69.7,7,95.4,7.3,109.4c0.2,10.6,8.1,17.8,19.6,18.1c6.9,0.2,12.8-1.3,17.2-4.3
	c4,2.9,9.2,4.5,15,4.5c6.9,0,13.1-1.8,17.7-5.1c4.2,3.3,9.7,5.1,15.8,5.1c8,0,15.5-2.8,21.5-8.1c4.1,5.2,11.2,8,19.7,8
	C150,127.7,158.3,117.9,164.5,105.1L164.5,105.1z"/>
<path fill-rule="evenodd" d="M0,180V0h180v180H0z M177.5,177.5V2.5H2.5v175L177.5,177.5L177.5,177.5z"/>
<path fill-rule="evenodd" d="M167.6,54.3c0-2.4,1.9-4.3,4.3-4.3c0,0,0,0,0,0c2.4,0,4.3,1.9,4.3,4.3l0,0c0,2.4-1.9,4.3-4.3,4.3
	c0,0,0,0,0,0C169.5,58.6,167.6,56.7,167.6,54.3C167.6,54.3,167.6,54.3,167.6,54.3L167.6,54.3z M171.9,50.8c1.9,0,3.5,1.5,3.5,3.5
	c0,1.9-1.6,3.5-3.5,3.5s-3.5-1.5-3.4-3.5l0,0C168.5,52.4,170,50.9,171.9,50.8C171.9,50.9,171.9,50.9,171.9,50.8L171.9,50.8z
	 M173.6,55.7l0.5,0.9H173l-0.4-0.7c-0.2-0.3-0.4-0.6-0.6-0.9c-0.2-0.2-0.3-0.2-0.7-0.2h-0.2v1.8h-0.9v-4.5h2.2c1,0,1.4,0.5,1.4,1.2
	c0,0.7-0.4,1.2-1.2,1.2v0C173,54.7,173.2,54.9,173.6,55.7C173.6,55.7,173.6,55.7,173.6,55.7z M171.1,52.8V54h0.9
	c0.6,0,0.8-0.3,0.8-0.6c0-0.4-0.3-0.6-0.9-0.6H171.1z M128.4,63.5c4.4-5.2,10.8-8.8,20.1-8.8c16.1,0,20.3,10.5,19.8,20.5
	c-0.3,6-2.2,13.1-3.7,17.4c-6.4,18.9-14,30.9-31.4,30.9c-7.9,0-15.2-3.1-18.1-10.9c-5.2,6.6-13.2,10.9-22.3,11
	c-7,0-12.4-2.4-15.8-6.7c-4.1,4.5-11,6.6-17.9,6.6c-6.2,0-11.3-2.2-14.7-5.8c-3.8,3.8-9.7,5.8-17.3,5.7c-9.7-0.2-15.1-6-15.3-14.1
	c-0.3-12.5,11.6-38.2,16.5-46c3.4-5.5,8.1-8.3,14.3-8.3c3.4,0,6.9,0.6,9.1,2.9c1.8,1.9,2.1,3.6,2.2,6.7c5.5-8.8,14.7-10,23.2-10
	c6.5,0,11.9,2.4,14.1,6.1c4.3-3.7,10.6-6,18.1-6c7.7,0,13.4,1.9,17,5.9C127.1,61.2,127.6,61.9,128.4,63.5L128.4,63.5L128.4,63.5z
	 M43.6,106.9c0.3-3-2-6.3-11-4.7c0.9-2,2.2-4.8,3.7-7.9l0,0c4.8-10,11.5-23.8,11.7-29.2c0.1-2.7-1-4.9-5.3-4.9
	c-4.6,0-7.4,1.9-9.8,5.8c-5.1,8.1-15.9,32.6-15.7,43.2c0.1,6.1,4.8,8.4,10,8.6C34.4,118,42.7,115.9,43.6,106.9L43.6,106.9
	L43.6,106.9z M61.9,93.9c-0.6,1.6-1.7,5-2.6,8.6c3-0.7,5.2-1.2,9-1.2c4.3,0.1,7.1,1.9,7.1,5.5c0,8.7-9.6,11.2-16.2,11.2
	c-7.3,0-13.7-4.2-13.7-12.1c0-9.4,5.1-23.6,9.8-33c5.8-11.6,11.8-13.2,22.1-13.2c4.5,0,9.7,1.9,9.7,6.2c0,5.9-5,8.2-10,8.5
	c-2.1,0.1-5.4,0.2-7.3,0.1c0,0-1.7,2.5-3.4,7c9.2-1.3,13.1,0.8,11.6,6.1C75.8,94.8,69.6,95.2,61.9,93.9
	C61.9,93.9,61.9,93.9,61.9,93.9z M101.9,74.8c1.2-1.7,2.8-3.3,5.3-3.3c3.1,0,2.8,1.6,2,3.7c-2.1,5.9,4.2,6,5.7,5.9
	c5.4-0.4,8.4-3.9,9.2-9.9c1-8.1-5.8-11.3-14.5-11.3c-14.5,0-20.2,8.9-25.6,21.5c-2.6,5.9-5.8,16.1-5.8,22.6c0,9.1,5.5,14,14.4,14
	c13,0,22.2-10.4,24.8-23.3c0.8-4,1.8-11.4-8.3-11c-5.1,0.2-8.2,1.3-9.9,6.6c-1.7,5.4,4.4,5.6,4.4,5.6c-1.2,5.6-4.8,9-8,9
	c-2,0-3.8-0.9-3.2-5.1C93.4,93.6,99.2,78.5,101.9,74.8L101.9,74.8L101.9,74.8z M161.9,82.2c-1.5,7.6-5,16.6-8.7,23.4
	c-6.1,11-13.5,12.5-20,12.4c-6.5-0.1-13.8-2.5-13.8-12.4c0-7.2,3.1-17.3,5.7-23.9c4.6-12,9.2-21.8,24-21.6
	C166.3,60.2,163.3,75.5,161.9,82.2L161.9,82.2L161.9,82.2z M140.3,101.7c2.4-4.1,9.1-22.4,9.3-27.1c0.1-1.3-0.2-2.9-2.3-2.9
	c-1.5,0-2.8,0.3-3.9,2.1c-2.6,3.4-10.2,24.2-10.1,28.3c0.1,1.5,0.9,2.8,2.7,2.8C138.1,104.9,139.3,103.5,140.3,101.7L140.3,101.7
	L140.3,101.7z"/>
</svg>
